<mxfile host="app.diagrams.net" agent="Mozilla/5.0 (Windows NT 10.0; Win64; x64) AppleWebKit/537.36 (KHTML, like Gecko) Chrome/138.0.0.0 Safari/537.36" version="28.0.4">
  <diagram name="PÃ¡gina-1" id="Cd6Ecj82D06aOyn52rEI">
    <mxGraphModel dx="443" dy="547" grid="1" gridSize="10" guides="1" tooltips="1" connect="1" arrows="1" fold="1" page="1" pageScale="1" pageWidth="827" pageHeight="1169" math="0" shadow="0">
      <root>
        <mxCell id="0" />
        <mxCell id="1" parent="0" />
        <mxCell id="HRtFf49MBxaAfnbbt5w4-1" style="edgeStyle=none;curved=1;rounded=0;orthogonalLoop=1;jettySize=auto;html=1;entryX=0;entryY=0.5;entryDx=0;entryDy=0;fontSize=12;startSize=8;endSize=8;" edge="1" parent="1" source="HRtFf49MBxaAfnbbt5w4-3" target="HRtFf49MBxaAfnbbt5w4-6">
          <mxGeometry relative="1" as="geometry" />
        </mxCell>
        <mxCell id="HRtFf49MBxaAfnbbt5w4-2" value="1. Abrir Apartado Encuestas" style="edgeLabel;html=1;align=center;verticalAlign=middle;resizable=0;points=[];fontSize=12;" vertex="1" connectable="0" parent="HRtFf49MBxaAfnbbt5w4-1">
          <mxGeometry x="-0.1106" y="1" relative="1" as="geometry">
            <mxPoint as="offset" />
          </mxGeometry>
        </mxCell>
        <mxCell id="HRtFf49MBxaAfnbbt5w4-3" value=":Administrador" style="html=1;whiteSpace=wrap;" vertex="1" parent="1">
          <mxGeometry x="34" y="20" width="110" height="50" as="geometry" />
        </mxCell>
        <mxCell id="HRtFf49MBxaAfnbbt5w4-4" style="edgeStyle=none;curved=1;rounded=0;orthogonalLoop=1;jettySize=auto;html=1;entryX=0.75;entryY=0;entryDx=0;entryDy=0;fontSize=12;startSize=8;endSize=8;" edge="1" parent="1" source="HRtFf49MBxaAfnbbt5w4-6" target="HRtFf49MBxaAfnbbt5w4-11">
          <mxGeometry relative="1" as="geometry" />
        </mxCell>
        <mxCell id="HRtFf49MBxaAfnbbt5w4-5" value="2. Solicitar Listado Encuestas" style="edgeLabel;html=1;align=center;verticalAlign=middle;resizable=0;points=[];fontSize=12;" vertex="1" connectable="0" parent="HRtFf49MBxaAfnbbt5w4-4">
          <mxGeometry x="-0.079" relative="1" as="geometry">
            <mxPoint x="-8" as="offset" />
          </mxGeometry>
        </mxCell>
        <mxCell id="HRtFf49MBxaAfnbbt5w4-6" value=":UI_Encuestas" style="html=1;whiteSpace=wrap;" vertex="1" parent="1">
          <mxGeometry x="304" y="90" width="110" height="50" as="geometry" />
        </mxCell>
        <mxCell id="HRtFf49MBxaAfnbbt5w4-7" style="edgeStyle=none;curved=1;rounded=0;orthogonalLoop=1;jettySize=auto;html=1;entryX=0;entryY=0.5;entryDx=0;entryDy=0;fontSize=12;startSize=8;endSize=8;" edge="1" parent="1" source="HRtFf49MBxaAfnbbt5w4-11" target="HRtFf49MBxaAfnbbt5w4-14">
          <mxGeometry relative="1" as="geometry">
            <Array as="points">
              <mxPoint x="184" y="330" />
            </Array>
          </mxGeometry>
        </mxCell>
        <mxCell id="HRtFf49MBxaAfnbbt5w4-8" value="3. Consular Encuestas" style="edgeLabel;html=1;align=center;verticalAlign=middle;resizable=0;points=[];fontSize=12;" vertex="1" connectable="0" parent="HRtFf49MBxaAfnbbt5w4-7">
          <mxGeometry x="-0.2211" relative="1" as="geometry">
            <mxPoint x="15" y="-3" as="offset" />
          </mxGeometry>
        </mxCell>
        <mxCell id="HRtFf49MBxaAfnbbt5w4-9" style="edgeStyle=none;curved=1;rounded=0;orthogonalLoop=1;jettySize=auto;html=1;entryX=0.75;entryY=1;entryDx=0;entryDy=0;fontSize=12;startSize=8;endSize=8;exitX=1;exitY=0.25;exitDx=0;exitDy=0;" edge="1" parent="1" source="HRtFf49MBxaAfnbbt5w4-11" target="HRtFf49MBxaAfnbbt5w4-6">
          <mxGeometry relative="1" as="geometry">
            <Array as="points">
              <mxPoint x="344" y="230" />
            </Array>
          </mxGeometry>
        </mxCell>
        <mxCell id="HRtFf49MBxaAfnbbt5w4-10" value="5. Mostrar Encuetas" style="edgeLabel;html=1;align=center;verticalAlign=middle;resizable=0;points=[];fontSize=12;" vertex="1" connectable="0" parent="HRtFf49MBxaAfnbbt5w4-9">
          <mxGeometry x="-0.1054" y="12" relative="1" as="geometry">
            <mxPoint as="offset" />
          </mxGeometry>
        </mxCell>
        <mxCell id="HRtFf49MBxaAfnbbt5w4-11" value=":GestionarEncuestas" style="html=1;whiteSpace=wrap;" vertex="1" parent="1">
          <mxGeometry x="29" y="200" width="120" height="50" as="geometry" />
        </mxCell>
        <mxCell id="HRtFf49MBxaAfnbbt5w4-12" style="edgeStyle=none;curved=1;rounded=0;orthogonalLoop=1;jettySize=auto;html=1;entryX=1;entryY=0.5;entryDx=0;entryDy=0;fontSize=12;startSize=8;endSize=8;exitX=0.5;exitY=0;exitDx=0;exitDy=0;" edge="1" parent="1" source="HRtFf49MBxaAfnbbt5w4-14" target="HRtFf49MBxaAfnbbt5w4-11">
          <mxGeometry relative="1" as="geometry" />
        </mxCell>
        <mxCell id="HRtFf49MBxaAfnbbt5w4-13" value="4. Devolver Listado Encuestas" style="edgeLabel;html=1;align=center;verticalAlign=middle;resizable=0;points=[];fontSize=12;" vertex="1" connectable="0" parent="HRtFf49MBxaAfnbbt5w4-12">
          <mxGeometry x="-0.0186" y="-3" relative="1" as="geometry">
            <mxPoint as="offset" />
          </mxGeometry>
        </mxCell>
        <mxCell id="HRtFf49MBxaAfnbbt5w4-14" value=":BD_Encuestas" style="html=1;whiteSpace=wrap;" vertex="1" parent="1">
          <mxGeometry x="294" y="310" width="120" height="50" as="geometry" />
        </mxCell>
      </root>
    </mxGraphModel>
  </diagram>
</mxfile>
